<svg xmlns="http://www.w3.org/2000/svg" viewBox="0 0 500 500"><g id="freepik--Character--inject-63"><g id="freepik--character--inject-63"><path d="M157,331.56c-6.65,1.39-13.44,2.59-14.13,6.53s5.12,11.38,18.34,8.23,14.25-8.07,13.38-11.73S162.25,330.46,157,331.56Z" style="fill:#263238"></path><path d="M251.06,319.64c-3.63-.26-9.41,6.29-13.59,11.4s-7.74,10.23-6.55,12.31,5.55,6.73,14.29.62,11.23-14.21,11.06-17.84S254.17,319.87,251.06,319.64Z" style="fill:#263238"></path><path d="M169.49,312.73a12.27,12.27,0,0,0-.09,9.64c5.38,13.12,3.17,34.85,3,46.71C161.58,377.45,153,370.5,153,370.5s-12.46-50.8-12.86-57c-.59-9.38,2.55-22,8.4-34.73a322.38,322.38,0,0,1,14.93-29.24l61.46,4A82.48,82.48,0,0,1,230,273.9c1.23,11.14,2,25.23,5,34.33a12.27,12.27,0,0,0,6.42,7.2c12.8,6.1,25.77,23.67,33.65,32.53-2.42,13.5-13.48,14.16-13.48,14.16s-43.38-29.23-47.84-33.56C207,322,200.6,312.79,196.36,299.41s-6.82-19.93-6.82-19.93S173.38,304,169.49,312.73Z" style="fill:#f0f0f0"></path><path d="M145.35,344s3.63,14,3.8,17.94c.14,3.3-.85,5.9-5.09,8.63-6.09,3.92-15.48,8.09-21.54,12.72-3.87,3-3.31,7.36,2.91,10,3.82,1.6,11.7,3.41,21.37,0,5.27-1.85,11.73-7.69,16.22-7.95s12.31-.56,14.92-4.63c.87-6.36-1.93-11.34-2.61-15.58-1.14-7-.88-21.07-.94-25.35,0,0-3.75,5.64-14,7S145.35,344,145.35,344Z" style="fill:#455a64"></path><path d="M173.33,335c.25,2.16-.78,4.33-3.44,6.31-5.32,3.94-14.56,5-20.64,2.37-2.81-1.21-4.45-3-4.88-5,0,0-.32-1.61.45-2.29l-.64-2.78a5,5,0,0,0-3,4.29c-.1,2.11,1,7.17,7.6,9.68s17.57,1.23,23-2.91c4.93-3.77,5.1-9.21,4.13-11.41a4.39,4.39,0,0,0-4.19-2.75l.42,2.63A2.46,2.46,0,0,1,173.33,335Z" style="fill:#BA68C8"></path><path d="M237.53,347.13s10.89,7.86,13.68,10.69c2.32,2.36,3.32,5,2,9.82-1.9,7-5.33,13.39-6.73,20.89-.89,4.79,2.48,7.68,8.83,5.44,3.91-1.37,9.67-4.31,15.86-12.47,3.93-5.18,4-12.33,7.15-15.54s7.46-9.47,6.67-14.24c-3.61-5.31-7.73-6.32-11.08-9-5.56-4.46-14.77-15-17.68-18.18,0,0,1,6.69-5.73,14.55S237.53,347.13,237.53,347.13Z" style="fill:#455a64"></path><path d="M252.27,321.71c1.63,1.43,2.32,3.73,1.67,7-1.3,6.5-7.45,13.48-13.72,15.6-2.91,1-5.33.75-7-.43,0,0-1.33-.95-1.21-2l-2.38-1.66a5.07,5.07,0,0,0,.68,5.21c1.35,1.62,5.55,4.65,12.14,2.09s13.86-10.86,15.11-17.57c1.13-6.1-2.39-10.25-4.59-11.24a4.53,4.53,0,0,0-5.05.7l2.27,1.76A2.25,2.25,0,0,1,252.27,321.71Z" style="fill:#BA68C8"></path><path d="M174.35,268.19s3.56,8.11,7.6,11.59c0,0-7.17,16.84-10.69,25s-2.78,13.36-2.78,13.36h0a12.19,12.19,0,0,1,1-5.44c3.89-8.77,20-33.25,20-33.25S182.4,276.66,174.35,268.19Z" style="fill:#e0e0e0"></path><path d="M113.68,190.56c-.66-1.3-1.49-7.83-1.23-11.44.23-3.08-2.57-4.39-4.39-1.89s-1.39,4.62-2.34,4.14-2.65-5.08-3.78-9.29c-1-3.79-4.75-10.07-11.16-3.57s-3,16.3-.82,21.4,8.65,11.66,12.71,13.49Z" style="fill:#455a64"></path><path d="M115.92,194.34c1.1-1.93-1.36-4-4-4.19a11.26,11.26,0,0,0-8.3,3.41c-3,2.91-4.15,7.32-3,10.65,1.28,3.78,4.32,3.17,4.32,3.17Z" style="fill:#BA68C8"></path><path d="M174,203.37c-3.38,5.2-17.12,17.31-22.7,21.43s-12.2,7.21-16.12,7.1c-3.28-.09-16-6.38-30.27-24.52-1.21-1.54-2.3-4.22-2-6.09.86-4.74,3.77-7.35,7.63-8.18a7.12,7.12,0,0,1,5.33,1.23c4.33,3.82,14.73,13.65,18.92,14.72,5-1.25,10.38-8.18,15.12-13.87s11.48-16.35,17.49-14.88C180.1,183.41,177.55,200.79,174,203.37Z" style="fill:#f0f0f0"></path><path d="M163.76,242.38c-2,1.5-2,5.74.85,8.75s11.21,9.15,24.78,11c15.23,2.06,27.25-2.37,33-6.3,5.95-4.07,2.68-8.13,2.68-8.13Z" style="fill:#BA68C8"></path><circle cx="191.06" cy="150.67" r="35.52" transform="translate(-43.11 84.58) rotate(-22.5)" style="fill:#455a64"></circle><path d="M183.81,192.36c.7,9.45-5.22,17.59-13.21,18.18s-12.86-7-13.56-16.45,4.53-18.79,11.21-16.59C176.26,177.32,183.1,182.91,183.81,192.36Z" style="fill:#BA68C8"></path><path d="M183.81,192.36c.7,9.45-5.22,17.59-13.21,18.18s-12.86-7-13.56-16.45,4.53-18.79,11.21-16.59C176.26,177.32,183.1,182.91,183.81,192.36Z" style="opacity:0.1"></path><path d="M167.2,177.46c-2.48,2.53-5.72,9.38-4.82,19.7.63,7.31,3.26,14,2.59,22.51-.47,5.89-3.91,15-1.21,22.71,1.42,4.05,10.93,12.09,25.37,14.9s33.3-3.81,36.69-10.84c3.52-7.29,4.56-26.18,3.84-35.26S226.6,183.61,219,175.73C197.88,163.39,181.46,166.62,167.2,177.46Z" style="fill:#fafafa"></path><circle cx="183.19" cy="145.02" r="14.7" style="fill:#263238"></circle><path d="M208.59,155.47s-2.38,11.19-3.33,13a5.07,5.07,0,0,1-2.93,2.36l.17-7.87Z" style="fill:#263238"></path><path d="M205.61,139.44a5.5,5.5,0,0,1,4.56,1.61c2,2,.87,8.28-1.58,14.42l-4.48.52Z" style="fill:#263238"></path><path d="M202.76,156c.9.54,2.19-1.19,3.3-2.35s4.73-2.75,6.53,1.06-1.59,9-4.44,9.9c-4.92,1.54-5.65-1.61-5.65-1.61l-.43,14.47s1.13,3.45-7.58,4.63-11.27-1.58-8.41-5.1l.07-2.14a31.35,31.35,0,0,1-6.62.34c-3.62-.56-5.89-3.41-7-7.32-1.76-6.28-2.43-11.36-.93-23.71,1.63-13.54,17.39-13.69,25.89-8.33S202.76,156,202.76,156Z" style="fill:#ffa8a7"></path><path d="M202.76,157.5c.46,0,2.18-2.84,3.3-3.86,1.54-1.4-.42-14-.45-14.2-.11-.66.15-1.37,0-2.12a9,9,0,0,0-1.07-2.64c-.95-1.62-2.6-2.45-4.2-3.41a16.87,16.87,0,0,0-9.17-2.4c-3.24,0-5.62.61-9.71,1.45-3.41.71-7.7,1.29-11,.22-2.21-.71-2,2.44-1.2,5.08a11.35,11.35,0,0,0,3.08,4.82c2,2,5.69,3.1,8.37,3.23,7.11.37,14.87-1.2,16.1-1.37,1.67-.23,2.13.3,3,4.72C200.59,150.9,201.24,157.47,202.76,157.5Z" style="fill:#263238"></path><path d="M205.6,140.44l5.44-2.92a3,3,0,0,0-4.12-1.37A3.25,3.25,0,0,0,205.6,140.44Z" style="fill:#263238"></path><path d="M186.15,174.85s8.06-1.63,10.88-3.13a9.24,9.24,0,0,0,3.9-3.85,12.81,12.81,0,0,1-2.21,4.55c-2.06,2.63-12.64,4.57-12.64,4.57Z" style="fill:#f28f8f"></path><path d="M187.58,155.45a1.62,1.62,0,1,0,1.61-1.68A1.64,1.64,0,0,0,187.58,155.45Z" style="fill:#263238"></path><path d="M189.29,149.35l3.46,1.91a2.06,2.06,0,0,0-.81-2.75A1.92,1.92,0,0,0,189.29,149.35Z" style="fill:#263238"></path><path d="M186.88,165.14l-3.69,1.38a1.94,1.94,0,0,0,2.51,1.23A2.08,2.08,0,0,0,186.88,165.14Z" style="fill:#f28f8f"></path><path d="M173.16,150.7l3.16-2.43a1.92,1.92,0,0,0-2.75-.42A2.1,2.1,0,0,0,173.16,150.7Z" style="fill:#263238"></path><path d="M174.13,155a1.62,1.62,0,1,0,1.62-1.68A1.65,1.65,0,0,0,174.13,155Z" style="fill:#263238"></path><polygon points="182.88 151.98 182.35 161.7 177.27 159.97 182.88 151.98" style="fill:#f28f8f"></polygon><path d="M191.06,186.72a36.06,36.06,0,1,1,36.06-36.05A36.1,36.1,0,0,1,191.06,186.72Zm0-71a35,35,0,1,0,35,35A35,35,0,0,0,191.06,115.68Z" style="fill:#BA68C8"></path><path d="M210.8,186.51c-10.9,6.3-28.57,6.3-39.48,0-6.91-4-9.78-8.42-7.92-13.56,6,8.68,16.33,13.24,27.66,13.24s21.57-4.43,27.55-13.11C220.47,178.22,217.71,182.52,210.8,186.51Z" style="fill:#BA68C8"></path><path d="M174.55,218.25l-.38,4c-5.39-.51-13.17,3.06-15.68,9-2.18,5.15-2,18.37,2.77,22.37-.54,1.11-1.12,2.36-1.74,3.71-7.09-5.1-7.58-20.85-4.72-27.63C158,222,167.61,217.59,174.55,218.25Z" style="fill:#e0e0e0"></path><path d="M175.41,217.29l-1.32-.14a1.12,1.12,0,0,0-1.2.91,13.42,13.42,0,0,0,0,4.44,1.12,1.12,0,0,0,1,.95l2.14.2Z" style="fill:#BA68C8"></path><path d="M180.18,206.8l18.73,4.64a6.7,6.7,0,0,1,4.85,6.2v11.11a3.73,3.73,0,0,1-4.85,3.8l-18.73-4.64a6.7,6.7,0,0,1-4.85-6.2V210.6A3.73,3.73,0,0,1,180.18,206.8Z" style="fill:#37474f"></path><path d="M181.37,211.67a4,4,0,0,1,2.91,3.72,2.23,2.23,0,0,1-2.91,2.27,4,4,0,0,1-2.9-3.71A2.24,2.24,0,0,1,181.37,211.67Z" style="fill:#BA68C8"></path><path d="M181.37,219.76a4,4,0,0,1,2.91,3.72,2.23,2.23,0,0,1-2.91,2.27,4,4,0,0,1-2.9-3.71A2.23,2.23,0,0,1,181.37,219.76Z" style="fill:#BA68C8"></path><path d="M223.19,248.33c-1.27.8-7.94,2.27-11.69,2.33-3.2.05-4.29,3.06-1.54,4.71s4.89,1,4.49,2-5,3.2-9.23,4.76c-3.83,1.41-10,5.83-2.66,11.85s17.1,1.56,22.17-1.15,11.22-10,12.74-14.36Z" style="fill:#455a64"></path><path d="M226.88,245.67c-2.08-1-4,1.77-3.95,4.51a11.72,11.72,0,0,0,4.29,8.25c3.28,2.79,7.94,3.6,11.27,2.13,3.79-1.68,2.87-4.76,2.87-4.76Z" style="fill:#BA68C8"></path><path d="M230.81,184.89c5.68,3,19.45,16.06,24.22,21.43s8.57,11.92,8.82,16c.21,3.4-5.09,17.1-22.49,33.5-1.48,1.4-4.14,2.77-6.1,2.59-5-.45-7.94-3.2-9.15-7.11a7.41,7.41,0,0,1,.77-5.61c3.54-4.82,12.73-16.47,13.44-20.89-1.76-5.1-10.43-9.93-15.17-12.76,0,0-12.05-3.37-11-16.82S227.82,181.48,230.81,184.89Z" style="fill:#f0f0f0"></path><path d="M230.81,184.89a5.73,5.73,0,0,0-5-1.49c-6.29,1.38-10.19,8.16-8.66,17.51,1,6.12,3.39,8.82,8,11.11-6.18.86-12.41-3.64-13.74-11.78-1.54-9.35,3.73-19.14,11.64-20.43A7.39,7.39,0,0,1,230.81,184.89Z" style="fill:#BA68C8"></path></g><g id="freepik--Star--inject-63"><path d="M99.09,129.09l4.82,4.76,6.66-1.28a.77.77,0,0,1,.83,1.11l-3,6,3.27,5.94a.77.77,0,0,1-.79,1.13l-6.7-1-4.64,4.94a.77.77,0,0,1-1.32-.4l-1.11-6.68L91,140.77a.78.78,0,0,1,0-1.39l6-3.11.84-6.73A.77.77,0,0,1,99.09,129.09Z" style="fill:#fafafa"></path><circle cx="117.06" cy="139.19" r="1.68" style="fill:#fafafa"></circle></g></g></svg>