<svg xmlns="http://www.w3.org/2000/svg" viewBox="0 0 500 500"><g id="freepik--Character--inject-35"><path d="M354.86,287.21c-25.09,0-51.59-10.26-68.16-27.79-16.72-17.7-21.2-40.08-12.61-63l3.74,1.4c-8,21.43-3.84,42.33,11.78,58.86,21.09,22.32,59,32.31,88.15,23.23,32.28-10,44.8-33.82,56.91-56.82C448.23,197.33,461,173,500,173v4c-36.54,0-48.24,22.22-61.79,47.95-11.91,22.61-25.4,48.24-59.26,58.77A81.1,81.1,0,0,1,354.86,287.21Z" style="fill:#407BFF"></path><path d="M354.86,287.21c-25.09,0-51.59-10.26-68.16-27.79-16.72-17.7-21.2-40.08-12.61-63l3.74,1.4c-8,21.43-3.84,42.33,11.78,58.86,21.09,22.32,59,32.31,88.15,23.23,32.28-10,44.8-33.82,56.91-56.82C448.23,197.33,461,173,500,173v4c-36.54,0-48.24,22.22-61.79,47.95-11.91,22.61-25.4,48.24-59.26,58.77A81.1,81.1,0,0,1,354.86,287.21Z" style="fill:#fff;opacity:0.5"></path><path d="M267.2,169.47l-1.35.53-1.25.47-2.5.85c-1.67.55-3.35,1-5,1.49a90.41,90.41,0,0,1-10.48,2.13,61.84,61.84,0,0,1-11.39.62,39.43,39.43,0,0,1-6.37-.84,37,37,0,0,1-6.23-2c-7.81-3.45-13.43-8.9-17.87-14.59a67.08,67.08,0,0,1-5.82-9c-.83-1.56-1.62-3.11-2.33-4.71-.36-.8-.7-1.61-1-2.42s-.6-1.61-.95-2.58l8.88-4.39,1.35,1.7c.48.59.95,1.18,1.45,1.76,1,1.17,2,2.32,3,3.43a77,77,0,0,0,6.29,6.24,47.5,47.5,0,0,0,6.65,5,36,36,0,0,0,3.36,1.83,23.45,23.45,0,0,0,3.32,1.21,15.73,15.73,0,0,0,6.42.56,54.42,54.42,0,0,0,7.94-1.21c2.78-.6,5.63-1.34,8.47-2.18,1.43-.39,2.85-.84,4.27-1.28l2.5-.91Z" style="fill:#407BFF"></path><path d="M267.2,169.47l-1.35.53-1.25.47-2.5.85c-1.67.55-3.35,1-5,1.49a90.41,90.41,0,0,1-10.48,2.13,61.84,61.84,0,0,1-11.39.62,39.43,39.43,0,0,1-6.37-.84,37,37,0,0,1-6.23-2c-7.81-3.45-13.43-8.9-17.87-14.59a67.08,67.08,0,0,1-5.82-9c-.83-1.56-1.62-3.11-2.33-4.71-.36-.8-.7-1.61-1-2.42s-.6-1.61-.95-2.58l8.88-4.39,1.35,1.7c.48.59.95,1.18,1.45,1.76,1,1.17,2,2.32,3,3.43a77,77,0,0,0,6.29,6.24,47.5,47.5,0,0,0,6.65,5,36,36,0,0,0,3.36,1.83,23.45,23.45,0,0,0,3.32,1.21,15.73,15.73,0,0,0,6.42.56,54.42,54.42,0,0,0,7.94-1.21c2.78-.6,5.63-1.34,8.47-2.18,1.43-.39,2.85-.84,4.27-1.28l2.5-.91Z" style="fill:#fff;opacity:0.6000000000000001"></path><path d="M258.46,151.18S240.68,168.65,234,211.64l42.64,16.84c2.56-5.65,9-34.52,26-59.17a67.82,67.82,0,0,0-13.06-8.08,193.37,193.37,0,0,0-18.13-7.16A97.09,97.09,0,0,0,258.46,151.18Z" style="fill:#407BFF"></path><path d="M258.46,151.18S240.68,168.65,234,211.64l42.64,16.84c2.56-5.65,9-34.52,26-59.17a67.82,67.82,0,0,0-13.06-8.08,193.37,193.37,0,0,0-18.13-7.16A97.09,97.09,0,0,0,258.46,151.18Z" style="fill:#fff;opacity:0.6000000000000001"></path><path d="M292.67,141.67c-3,4.74-7.76,13.74-5.52,18.59,0,0-1.23,2.13-9.9-1.32-7.08-2.82-6.05-5-6.05-5,6.26.89,7.79-3.41,8.37-7.8Z" style="fill:#e4897b"></path><path d="M287.33,143.51l-7.75,2.65a18.49,18.49,0,0,1-.63,3c2.31.54,6.26-.67,7.4-2.87A8.32,8.32,0,0,0,287.33,143.51Z" style="fill:#ce6f64"></path><path d="M288,117c-4-.58-12,8.52-9.22,13S295.55,118.14,288,117Z" style="fill:#263238"></path><path d="M296.55,136.19c-4.67,5.86-7.1,9.52-12.39,10.49-8,1.47-13.55-6.63-10.73-13.76,2.54-6.42,9.75-14.92,17.45-13.15A10.21,10.21,0,0,1,296.55,136.19Z" style="fill:#e4897b"></path><path d="M291.92,141.89c-4.16-.94-1.51-16.68,9.24-13.78C314.18,131.62,298.65,143.4,291.92,141.89Z" style="fill:#263238"></path><path d="M301.47,132.23c-5-1.85-18.71-8.84-16.2-17.29,1.23-4.11,9.08-3.46,14.53-.55-8.85.32-4.41,4.53,1.38,6.35C310.6,123.7,308.16,134.73,301.47,132.23Z" style="fill:#263238"></path><path d="M302.76,130.1s5.32-.7,4.21,4.13A6.05,6.05,0,0,0,302.76,130.1Z" style="fill:#263238"></path><path d="M303,129.66s3.25,4.26,5.9.08A6.07,6.07,0,0,1,303,129.66Z" style="fill:#263238"></path><path d="M294.58,144.87a7.09,7.09,0,0,1-5.43,0c-2.31-1-1.92-3.39,0-4.76,1.74-1.23,5-2.21,6.72-.46S296.7,144,294.58,144.87Z" style="fill:#e4897b"></path><path d="M234,211.64s-33.48,25.21-43.92,45.72C179.25,278.71,169.05,322,169.05,322l15.87,5.76s13.27-36.75,25.33-56.93c13.15-22,34.94-27.05,51.81-48.16Z" style="fill:#407BFF"></path><path d="M234,211.64s-33.48,25.21-43.92,45.72C179.25,278.71,169.05,322,169.05,322l15.87,5.76s13.27-36.75,25.33-56.93c13.15-22,34.94-27.05,51.81-48.16Z" style="fill:#fff;opacity:0.6000000000000001"></path><path d="M249.16,217.61s-22,35.86-25,57.91c-3.25,24.14,4.47,69.56,4.47,69.56l15.8-3.79s-3.78-32.93,1.72-55.94c6-25,23.54-39.29,30.49-56.87Z" style="fill:#407BFF"></path><path d="M249.16,217.61s-22,35.86-25,57.91c-3.25,24.14,4.47,69.56,4.47,69.56l15.8-3.79s-3.78-32.93,1.72-55.94c6-25,23.54-39.29,30.49-56.87Z" style="fill:#fff;opacity:0.6000000000000001"></path><path d="M286.07,131.39c-.35.5-.9.72-1.22.49s-.31-.81,0-1.31.9-.72,1.22-.49S286.42,130.9,286.07,131.39Z" style="fill:#263238"></path><path d="M280.44,127.44c-.35.5-.9.72-1.22.49s-.31-.81,0-1.31.9-.72,1.22-.49S280.79,127,280.44,127.44Z" style="fill:#263238"></path><path d="M282.06,129a21.74,21.74,0,0,1-5.37,2.59c.3,1.44,2.06,2.12,2.06,2.12Z" style="fill:#de5753"></path><path d="M282.33,137.06a5.31,5.31,0,0,1-3.09-1,.18.18,0,1,1,.21-.29,4.81,4.81,0,0,0,4.3.71.19.19,0,0,1,.23.1.18.18,0,0,1-.1.23A4.36,4.36,0,0,1,282.33,137.06Z" style="fill:#263238"></path><path d="M289.25,130.83a.36.36,0,0,1-.36-.34,2.84,2.84,0,0,0-1.19-2.29.36.36,0,0,1,.37-.62,3.57,3.57,0,0,1,1.53,2.88.34.34,0,0,1-.34.37Z" style="fill:#263238"></path><path d="M279.54,123.85a.37.37,0,0,1-.32-.19.36.36,0,0,1,.14-.48,3.57,3.57,0,0,1,3.26-.18.36.36,0,0,1,.15.49.36.36,0,0,1-.48.15,2.83,2.83,0,0,0-2.58.16A.34.34,0,0,1,279.54,123.85Z" style="fill:#263238"></path><path d="M302.68,169.31l.66.65.75,1,1.43,2c.91,1.34,1.8,2.69,2.64,4.07s1.65,2.79,2.43,4.23,1.5,2.9,2.21,4.39a72.64,72.64,0,0,1,3.66,9.43c.26.81.49,1.66.7,2.52l.33,1.28.08.32.1.46.2.91a26.64,26.64,0,0,1,.39,6.52,46.89,46.89,0,0,1-2,10.53,79.3,79.3,0,0,1-3.41,9.15c-1.28,2.92-2.7,5.72-4.21,8.46s-3.11,5.35-5,8l-8.88-4.4c1.52-5.49,3.1-11.18,4.29-16.65.56-2.75,1.11-5.46,1.42-8.07.16-1.32.27-2.58.36-3.8a29,29,0,0,0,0-3.39,10.45,10.45,0,0,0-.48-2.37l-.07-.17,0-.09-.09-.2-.36-.85c-.24-.56-.48-1.13-.77-1.7a78,78,0,0,0-3.65-6.9c-.66-1.16-1.35-2.31-2.08-3.46s-1.43-2.3-2.19-3.44-1.5-2.28-2.26-3.41l-2.18-3.22Z" style="fill:#407BFF"></path><path d="M302.68,169.31l.66.65.75,1,1.43,2c.91,1.34,1.8,2.69,2.64,4.07s1.65,2.79,2.43,4.23,1.5,2.9,2.21,4.39a72.64,72.64,0,0,1,3.66,9.43c.26.81.49,1.66.7,2.52l.33,1.28.08.32.1.46.2.91a26.64,26.64,0,0,1,.39,6.52,46.89,46.89,0,0,1-2,10.53,79.3,79.3,0,0,1-3.41,9.15c-1.28,2.92-2.7,5.72-4.21,8.46s-3.11,5.35-5,8l-8.88-4.4c1.52-5.49,3.1-11.18,4.29-16.65.56-2.75,1.11-5.46,1.42-8.07.16-1.32.27-2.58.36-3.8a29,29,0,0,0,0-3.39,10.45,10.45,0,0,0-.48-2.37l-.07-.17,0-.09-.09-.2-.36-.85c-.24-.56-.48-1.13-.77-1.7a78,78,0,0,0-3.65-6.9c-.66-1.16-1.35-2.31-2.08-3.46s-1.43-2.3-2.19-3.44-1.5-2.28-2.26-3.41l-2.18-3.22Z" style="fill:#fff;opacity:0.6000000000000001"></path><circle cx="287.77" cy="134.21" r="28.57" transform="translate(-29.61 124.38) rotate(-23.23)" style="fill:#407BFF;opacity:0.1"></circle><path d="M287.78,163.79a29.7,29.7,0,0,1-22.66-10.56,1,1,0,0,1,1.54-1.28,27.62,27.62,0,0,0,25.4,9.5,1,1,0,0,1,.31,2A29.39,29.39,0,0,1,287.78,163.79Z" style="fill:#263238"></path><polygon points="246.54 344.52 227.17 349.49 225.74 330.47 244.61 328.1 246.54 344.52" style="fill:#407BFF"></polygon><polygon points="246.54 344.52 227.17 349.49 225.74 330.47 244.61 328.1 246.54 344.52" style="opacity:0.2"></polygon><path d="M228.17,345.49l16.56-3.7a1.08,1.08,0,0,1,1.18.64l4.34,10.3a1.81,1.81,0,0,1-1.38,2.47c-4.75.78-7.1.92-13.06,2-3.67.67-11.17,2.43-16.23,3.35s-6.5-3.68-4.65-4.8c6.79-4.14,8.93-5.95,11.42-9.17A3,3,0,0,1,228.17,345.49Z" style="fill:#407BFF"></path><path d="M228.17,345.49l16.56-3.7a1.08,1.08,0,0,1,1.18.64l4.34,10.3a1.81,1.81,0,0,1-1.38,2.47c-4.75.78-7.1.92-13.06,2-3.67.67-11.17,2.43-16.23,3.35s-6.5-3.68-4.65-4.8c6.79-4.14,8.93-5.95,11.42-9.17A3,3,0,0,1,228.17,345.49Z" style="opacity:0.2"></path><polygon points="184.62 330.73 165.18 326.01 171.62 308.63 190.63 315.33 184.62 330.73" style="fill:#407BFF"></polygon><polygon points="184.62 330.73 165.18 326.01 171.62 308.63 190.63 315.33 184.62 330.73" style="opacity:0.2"></polygon><path d="M168,323l16.35,4.53a1.06,1.06,0,0,1,.74,1.11l-1,11.13a1.8,1.8,0,0,1-2.38,1.53c-4.56-1.54-6.7-2.52-12.48-4.37-3.55-1.13-11-3.1-15.89-4.67s-4-6.3-1.85-6.42c7.94-.46,10.68-1.05,14.39-2.72A3,3,0,0,1,168,323Z" style="fill:#407BFF"></path><path d="M168,323l16.35,4.53a1.06,1.06,0,0,1,.74,1.11l-1,11.13a1.8,1.8,0,0,1-2.38,1.53c-4.56-1.54-6.7-2.52-12.48-4.37-3.55-1.13-11-3.1-15.89-4.67s-4-6.3-1.85-6.42c7.94-.46,10.68-1.05,14.39-2.72A3,3,0,0,1,168,323Z" style="opacity:0.2"></path><path d="M277,231.54c-28.56-7.57-45.39-18-46.09-18.43l3.18-5.09c.16.11,16.83,10.4,44.45,17.72Z" style="fill:#407BFF"></path><path d="M277,231.54c-28.56-7.57-45.39-18-46.09-18.43l3.18-5.09c.16.11,16.83,10.4,44.45,17.72Z" style="opacity:0.2"></path><path d="M191.45,268.16a3.65,3.65,0,0,1-1.63-.37c-1.45-.74-2.32-2.41-2.44-4.71A16.29,16.29,0,0,1,194.06,250c1.92-1.25,3.79-1.53,5.24-.79s2.33,2.41,2.45,4.7a15.14,15.14,0,0,1-1.78,7.37h0a14.61,14.61,0,0,1-5,5.77A6.81,6.81,0,0,1,191.45,268.16ZM197.56,249a6.29,6.29,0,0,0-3.36,1.16,16.08,16.08,0,0,0-6.57,12.91c.11,2.2.93,3.8,2.31,4.5s3,.36,4.87-.78a14.37,14.37,0,0,0,4.94-5.68,14.83,14.83,0,0,0,1.75-7.23c-.12-2.2-.94-3.8-2.31-4.5A3.59,3.59,0,0,0,197.56,249Z" style="fill:#407BFF"></path><path d="M191.45,268.16a3.65,3.65,0,0,1-1.63-.37c-1.45-.74-2.32-2.41-2.44-4.71A16.29,16.29,0,0,1,194.06,250c1.92-1.25,3.79-1.53,5.24-.79s2.33,2.41,2.45,4.7a15.14,15.14,0,0,1-1.78,7.37h0a14.61,14.61,0,0,1-5,5.77A6.81,6.81,0,0,1,191.45,268.16ZM197.56,249a6.29,6.29,0,0,0-3.36,1.16,16.08,16.08,0,0,0-6.57,12.91c.11,2.2.93,3.8,2.31,4.5s3,.36,4.87-.78a14.37,14.37,0,0,0,4.94-5.68,14.83,14.83,0,0,0,1.75-7.23c-.12-2.2-.94-3.8-2.31-4.5A3.59,3.59,0,0,0,197.56,249Z" style="opacity:0.2"></path><path d="M227.89,288.42h-.24c-3.34-.27-5.69-5.16-5.23-10.9.44-5.59,3.36-10,6.59-10l.28,0c3.34.26,5.68,5.15,5.23,10.89C234,284.53,230.76,288.42,227.89,288.42ZM229,267.81c-3.1,0-5.91,4.27-6.34,9.73s1.8,10.37,5,10.63c2.76.22,6.14-3.72,6.61-9.72h0c.44-5.6-1.8-10.37-5-10.62Z" style="fill:#407BFF"></path><path d="M227.89,288.42h-.24c-3.34-.27-5.69-5.16-5.23-10.9.44-5.59,3.36-10,6.59-10l.28,0c3.34.26,5.68,5.15,5.23,10.89C234,284.53,230.76,288.42,227.89,288.42ZM229,267.81c-3.1,0-5.91,4.27-6.34,9.73s1.8,10.37,5,10.63c2.76.22,6.14-3.72,6.61-9.72h0c.44-5.6-1.8-10.37-5-10.62Z" style="opacity:0.2"></path><path d="M263.72,192.78a9.06,9.06,0,0,1-3.52-.7c-5.58-2.33-7.78-9.81-4.92-16.69a15.15,15.15,0,0,1,6.63-7.58,9.56,9.56,0,0,1,14.32,6,15.16,15.16,0,0,1-.71,10h0a15.15,15.15,0,0,1-6.63,7.58A10.8,10.8,0,0,1,263.72,192.78Zm3.35-26.1a10.53,10.53,0,0,0-5,1.35,14.9,14.9,0,0,0-6.52,7.46c-2.81,6.75-.66,14.09,4.79,16.36a9.71,9.71,0,0,0,8.47-.67,14.9,14.9,0,0,0,6.52-7.46l.11.05-.11-.05a14.91,14.91,0,0,0,.7-9.87,9.7,9.7,0,0,0-5.49-6.49A9,9,0,0,0,267.07,166.68Z" style="fill:#407BFF"></path><path d="M263.72,192.78a9.06,9.06,0,0,1-3.52-.7c-5.58-2.33-7.78-9.81-4.92-16.69a15.15,15.15,0,0,1,6.63-7.58,9.56,9.56,0,0,1,14.32,6,15.16,15.16,0,0,1-.71,10h0a15.15,15.15,0,0,1-6.63,7.58A10.8,10.8,0,0,1,263.72,192.78Zm3.35-26.1a10.53,10.53,0,0,0-5,1.35,14.9,14.9,0,0,0-6.52,7.46c-2.81,6.75-.66,14.09,4.79,16.36a9.71,9.71,0,0,0,8.47-.67,14.9,14.9,0,0,0,6.52-7.46l.11.05-.11-.05a14.91,14.91,0,0,0,.7-9.87,9.7,9.7,0,0,0-5.49-6.49A9,9,0,0,0,267.07,166.68Z" style="opacity:0.2"></path><path d="M195.43,144.12l11.63-5.71s-6.31-15.49-12.9-14.12C187.35,125.7,189.31,132.38,195.43,144.12Z" style="fill:#407BFF"></path><path d="M195.43,144.12l11.63-5.71s-6.31-15.49-12.9-14.12C187.35,125.7,189.31,132.38,195.43,144.12Z" style="opacity:0.2"></path><path d="M201,134.25l5.2,3s.38-10.9-2.18-11.4S200.42,128.39,201,134.25Z" style="fill:#407BFF"></path><path d="M201,134.25l5.2,3s.38-10.9-2.18-11.4S200.42,128.39,201,134.25Z" style="opacity:0.2"></path><path d="M307.68,238.17l-11.61-5.77s-8.46,14.44-3.36,18.84C298,255.79,302.08,250.17,307.68,238.17Z" style="fill:#407BFF"></path><path d="M307.68,238.17l-11.61-5.77s-8.46,14.44-3.36,18.84C298,255.79,302.08,250.17,307.68,238.17Z" style="opacity:0.2"></path><path d="M296.47,239.77l-.75-6s-8.89,6.33-7.72,8.66S292.15,243.77,296.47,239.77Z" style="fill:#407BFF"></path><path d="M296.47,239.77l-.75-6s-8.89,6.33-7.72,8.66S292.15,243.77,296.47,239.77Z" style="opacity:0.2"></path><rect x="302.3" y="186.68" width="10.01" height="6.42" transform="translate(-52.62 159.03) rotate(-26.81)" style="fill:#407BFF"></rect><rect x="302.3" y="186.68" width="10.01" height="6.42" transform="translate(-52.62 159.03) rotate(-26.81)" style="opacity:0.2"></rect><path d="M276.64,215.47a.64.64,0,1,1,.67-.42A.57.57,0,0,1,276.64,215.47Z" style="fill:#407BFF"></path><path d="M275.75,217.94a.64.64,0,0,1,.42-1.17.64.64,0,0,1-.42,1.17Z" style="fill:#407BFF"></path><path d="M274.86,220.4a.64.64,0,1,1,.66-.42A.56.56,0,0,1,274.86,220.4Z" style="fill:#407BFF"></path><path d="M277.53,217.19a.64.64,0,1,1,.66-.42A.56.56,0,0,1,277.53,217.19Z" style="fill:#407BFF"></path><path d="M276.64,219.65a.64.64,0,1,1,.66-.42A.56.56,0,0,1,276.64,219.65Z" style="fill:#407BFF"></path><path d="M275.75,222.12a.56.56,0,0,1-.24-.75.49.49,0,1,1,.9.32A.56.56,0,0,1,275.75,222.12Z" style="fill:#407BFF"></path><g style="opacity:0.2"><path d="M276.64,215.47a.64.64,0,1,1,.67-.42A.57.57,0,0,1,276.64,215.47Z"></path><path d="M275.75,217.94a.64.64,0,0,1,.42-1.17.64.64,0,0,1-.42,1.17Z"></path><path d="M274.86,220.4a.64.64,0,1,1,.66-.42A.56.56,0,0,1,274.86,220.4Z"></path><path d="M277.53,217.19a.64.64,0,1,1,.66-.42A.56.56,0,0,1,277.53,217.19Z"></path><path d="M276.64,219.65a.64.64,0,1,1,.66-.42A.56.56,0,0,1,276.64,219.65Z"></path><path d="M275.75,222.12a.56.56,0,0,1-.24-.75.49.49,0,1,1,.9.32A.56.56,0,0,1,275.75,222.12Z"></path></g></g></svg>