<svg xmlns="http://www.w3.org/2000/svg" viewBox="0 0 500 500"><g id="freepik--Character--inject-55"><path d="M281.61,248.5c3.26,1.72,28.6,30.3,21.84,43.89-5,10-36.25,14.65-36.25,14.65l-3.85-8.53s22.88-8.1,24.23-11.65-24.36-22.45-24.36-22.45Z" style="fill:#FFFFFF"></path><path d="M281.61,248.5c3.26,1.72,28.6,30.3,21.84,43.89-5,10-36.25,14.65-36.25,14.65l-3.85-8.53s22.88-8.1,24.23-11.65-24.36-22.45-24.36-22.45Z" style="fill:#fff;opacity:0.30000000000000004"></path><path d="M278.13,292.63c-.82,3.32-3.2,5.88-8.06,7.26l3,6.07-.62.13-4.74-9.2Z" style="opacity:0.2"></path><path d="M266.78,295l6.63,12.88-12.77,2.89a1.33,1.33,0,0,0-1,1.7l1.52,4.69a2,2,0,0,1-.85,2.27l-1,.6a1.37,1.37,0,0,1-1.84-.42l-11-16.61a.82.82,0,0,1,.42-1.23Z" style="fill:#FFFFFF"></path><g style="opacity:0.2"><path d="M266.78,295l6.63,12.88-12.77,2.89a1.33,1.33,0,0,0-1,1.7l1.52,4.69a2,2,0,0,1-.85,2.27l-1,.6a1.37,1.37,0,0,1-1.84-.42l-11-16.61a.82.82,0,0,1,.42-1.23Z" style="fill:#fff"></path></g><path d="M255,299A40.39,40.39,0,0,0,269.38,300l-2.6-5.05Z" style="opacity:0.2"></path><path d="M280.34,278.08l2.1,1.92c2.14-7.73-1.72-15.13-3-25l-1.85.52A101.08,101.08,0,0,1,280.34,278.08Z" style="opacity:0.2"></path><polygon points="224.16 331.24 206 338.21 202.6 311.5 220.54 304.31 224.16 331.24" style="fill:#FFFFFF"></polygon><polygon points="224.16 331.24 206 338.21 202.6 311.5 220.54 304.31 224.16 331.24" style="opacity:0.2"></polygon><path d="M212.72,305c10.81-22.13,21.65-38.08,32.57-40.2L328,241c19.84-3,37.74,2.86,53.59,18.18-2.93,24.86-15,37.91-32.32,44.09l-85.54,22.48C255.92,327.69,239.88,321.67,212.72,305Z" style="fill:#FFFFFF"></path><path d="M189.65,307.71,218.78,294c7.62,5,8.43,12.46,6.07,18.34l-29.56,9.73C188.94,318.29,187.64,314.13,189.65,307.71Z" style="fill:#FFFFFF"></path><path d="M169.23,301.11l-11.91,1.07a17,17,0,0,0-9.87,4.31l-36.81,33.28L160.45,344a17,17,0,0,0,7.86-1.19l9.54-3.9a17,17,0,0,0,10.23-12.34l.38-1.86a17,17,0,0,0-.47-8.53l-1.08-3.37a17,17,0,0,0-3.23-5.83h0A17,17,0,0,0,169.23,301.11Z" style="fill:#FFFFFF"></path><path d="M169.23,301.11l-11.91,1.07a17,17,0,0,0-9.87,4.31l-36.81,33.28L160.45,344a17,17,0,0,0,7.86-1.19l9.54-3.9a17,17,0,0,0,10.23-12.34l.38-1.86a17,17,0,0,0-.47-8.53l-1.08-3.37a17,17,0,0,0-3.23-5.83h0A17,17,0,0,0,169.23,301.11Z" style="fill:#fff;opacity:0.19"></path><path d="M176.66,309.59l-6.07.55a8.65,8.65,0,0,0-5,2.19l-18.75,16.95,25.37,2.18a8.68,8.68,0,0,0,4-.61l4.86-2a8.66,8.66,0,0,0,5.21-6.29l.19-.95a8.63,8.63,0,0,0-.23-4.34l-.55-1.72a8.68,8.68,0,0,0-1.65-3h0A8.64,8.64,0,0,0,176.66,309.59Z" style="fill:#fff;opacity:0.29"></path><path d="M179,313.22l-3.8.34a5.44,5.44,0,0,0-3.14,1.38l-11.72,10.6,15.86,1.36a5.52,5.52,0,0,0,2.51-.38l3-1.24a5.42,5.42,0,0,0,3.25-3.94l.12-.59a5.42,5.42,0,0,0-.15-2.71l-.34-1.08a5.43,5.43,0,0,0-1-1.85h0A5.42,5.42,0,0,0,179,313.22Z" style="fill:#FFFFFF"></path><path d="M212.72,305c10.81-22.13,21.65-38.08,33.23-40.39l82.65-23.76c19.19-2.85,37.09,3.05,52.94,18.37-2.93,24.86-15,37.91-32.32,44.09l-85.54,22.48C255.92,327.69,239.88,321.67,212.72,305Z" style="opacity:0.1"></path><path d="M189.65,307.71,218.78,294c-1.85,8.05,2.19,14.49,6.07,18.34l-29.56,9.73C188.94,318.29,187.64,314.13,189.65,307.71Z" style="fill:#FFFFFF"></path><polygon points="185.14 352.34 212.97 341.71 218.01 308.16 197.18 316.18 185.14 352.34" style="fill:#FFFFFF"></polygon><polygon points="185.14 352.34 212.97 341.71 218.01 308.16 197.18 316.18 185.14 352.34" style="fill:#fff;opacity:0.30000000000000004"></polygon><polygon points="160.96 285.79 191.29 276.57 216.04 298.4 192.11 308.25 160.96 285.79" style="fill:#FFFFFF"></polygon><polygon points="160.96 285.79 191.29 276.57 216.04 298.4 192.11 308.25 160.96 285.79" style="fill:#fff;opacity:0.30000000000000004"></polygon><path d="M315.33,244.67l4.18-1.2a12.15,12.15,0,0,0-5.23,8.68c-3.67,19.32,1.14,37,13.36,52.31,2,2.06,5.27,2.57,8.06,2.4l-3.58.94c-3.78.25-5.53-1-7.72-3-12.31-11.79-17.73-35.29-13.47-52.38C311.71,248.38,313.59,245.17,315.33,244.67Z" style="fill:#fff;opacity:0.7000000000000001"></path><path d="M305.8,247.41l4-1.15c-2.54,1.1-4.68,5.15-5.23,8.64-3.66,19.32,1.18,36.77,13.36,52.31,1.72,1.91,5.19,2.39,8,2.23l-3.74.95c-3.78.25-5.43-.65-7.48-2.82-12.31-11.79-17.74-35.29-13.48-52.38C301.83,251.16,304.61,247.75,305.8,247.41Z" style="fill:#fff;opacity:0.7000000000000001"></path><path d="M378.75,257.93c-.77,2.07-.42,3.65,1.53,4.5l25.81-7.8c3.87-1.59,5.3-2.6-.46-1.87Z" style="fill:#FFFFFF"></path><path d="M378.75,257.93c-.77,2.07-.42,3.65,1.53,4.5l25.81-7.8c3.87-1.59,5.3-2.6-.46-1.87Z" style="opacity:0.30000000000000004"></path><path d="M222.44,309.57c16.57,6,35.21,14.07,43.12,11.69L350,298.81c11.13-1.65,21.36-23.3,29.08-37.18-9,12.78-18.1,31.61-31.33,34.33L265.56,318C256,321.17,237.79,313.59,222.44,309.57Z" style="opacity:0.2"></path><path d="M319.52,245.56a8,8,0,0,0-3.11,4.95l14-3.88c13.19-2.87,36.45,5.83,48,13-10-8.88-34.82-19.62-47-16.69Z" style="fill:#fff;opacity:0.4"></path><polygon points="378.65 261.02 379.77 262.17 409.21 253.12 378.65 261.02" style="opacity:0.30000000000000004"></polygon><path d="M274.07,256.53l-.72,39.88-28.15.15c14.67,5.65,29.3,7.34,33.11,1.65,6.59-11,6.3-26.14,2-43.49Z" style="opacity:0.2"></path><path d="M280.77,256.48l22.32-6.24a8.35,8.35,0,0,0-1.62,3.74l-20,5.68Z" style="fill:#e6e6e6;opacity:0.2"></path><path d="M255.57,264.68l-11.31,3.61a23,23,0,0,0-7,5.15l-6.12,7.09,4.21.92,5.08-5.92a17.28,17.28,0,0,1,5.57-4.28l10.79-3.83Z" style="fill:#e0e0e0;opacity:0.2"></path><path d="M233.89,211l15.18,11.66,24.47,3.12,15.17-35.08-7.15-9.84-32.49-11.61C240.9,180.87,237.08,195.32,233.89,211Z" style="fill:#FFFFFF"></path><path d="M233.89,211l15.18,11.66,24.47,3.12,15.17-35.08-7.15-9.84-32.49-11.61C242,179.45,237.06,193.65,233.89,211Z" style="fill:#fff;opacity:0.2"></path><path d="M233.89,211l15.18,11.65,15.71-38.82c-5.08-2.91-10.31-7.71-15.71-14.58C242.71,177.59,237.72,191.83,233.89,211Z" style="opacity:0.30000000000000004"></path><path d="M275.41,248.53c2.06,3,10.82,40.31-1.56,49.09-9.1,6.45-38.87-4.23-38.87-4.23l.63-9.34s24,3.69,26.87,1.2-10.16-25.2-10.85-31.3S275.41,248.53,275.41,248.53Z" style="fill:#FFFFFF"></path><path d="M275.41,248.53c2.06,3,10.82,40.31-1.56,49.09-9.1,6.45-38.87-4.23-38.87-4.23l.63-9.34s24,3.69,26.87,1.2-10.16-25.2-10.85-31.3S275.41,248.53,275.41,248.53Z" style="fill:#fff;opacity:0.30000000000000004"></path><path d="M246.06,283.75l-.92,14.45-12.45-4.07a1.32,1.32,0,0,0-1.7,1l-1.1,4.8a2,2,0,0,1-1.9,1.51h-1.16a1.37,1.37,0,0,1-1.37-1.3l-.92-19.91a.82.82,0,0,1,1-.84Z" style="fill:#FFFFFF"></path><path d="M297.11,191.64s4.55,22.27,7.66,26.74,19,19.47,19,19.47l-1.5,4.66s-23.86-15.31-25.5-17.46S284,202,284,202Z" style="fill:#FFFFFF"></path><path d="M304.77,166.76s-1.3,6.33-6.2,7.72.08-12.18.08-12.18l4.48-1.1Z" style="fill:#263238"></path><circle cx="291.59" cy="169.54" r="17.8" transform="translate(-34.48 255.84) rotate(-45)" style="fill:#263238"></circle><circle cx="291.59" cy="169.54" r="17.8" transform="translate(-34.48 255.84) rotate(-45)" style="fill:#fff;opacity:0.2"></circle><path d="M296,183.27a14.8,14.8,0,0,0,9.18-6l-1.37-.81a24.17,24.17,0,0,1-8.84,6Z" style="fill:#fff;opacity:0.7000000000000001"></path><path d="M305.65,176.33l-1.42-.67a2.81,2.81,0,0,0,.65-1.3l1.33.68A2.19,2.19,0,0,1,305.65,176.33Z" style="fill:#fff;opacity:0.7000000000000001"></path><path d="M278.33,182.74c-1,3.67,9.56,8.83,13.26,5.16-2-1.51-2.52-3.09-2.27-4.63a7.1,7.1,0,0,1,1.09-2.61,12.76,12.76,0,0,1,.92-1.3l-4.5-9.32C285.9,174.14,283.82,183.4,278.33,182.74Z" style="fill:#e4897b"></path><path d="M286.71,174.4c-2,4.57,1,7.69,2.61,8.87a7.1,7.1,0,0,1,1.09-2.61Z" style="opacity:0.2;isolation:isolate"></path><path d="M285.22,176.16a7,7,0,0,0,6.65,5.35,7.83,7.83,0,0,0,5.47-1.89,6.43,6.43,0,0,0,.6-.57c3.54-3.76,7-11.33,3.36-16a7.63,7.63,0,0,0-12.94,1.39C285.87,169.46,284.18,172.29,285.22,176.16Z" style="fill:#e4897b"></path><path d="M294.94,170a.69.69,0,0,0,.05,1c.27.15.66,0,.88-.45s.2-.83-.06-1S295.17,169.63,294.94,170Z" style="fill:#263238"></path><path d="M299.39,172.59a.71.71,0,0,0,.06,1c.26.14.65-.06.88-.45s.2-.84-.06-1S299.61,172.21,299.39,172.59Z" style="fill:#263238"></path><path d="M297.87,172a15.79,15.79,0,0,0-.05,4.45,2.63,2.63,0,0,1-2.1-.73Z" style="fill:#de5753"></path><path d="M294.38,167.8a.28.28,0,0,0,.28,0,2.13,2.13,0,0,1,1.92.08.27.27,0,0,0,.3-.44h0a2.64,2.64,0,0,0-2.43-.13.27.27,0,0,0-.15.35h0A.44.44,0,0,0,294.38,167.8Z" style="fill:#263238"></path><path d="M293.91,177.36h0a4.09,4.09,0,0,1-2.5-2.83.15.15,0,0,1,.12-.17.14.14,0,0,1,.16.11h0A3.94,3.94,0,0,0,294,177.1a.13.13,0,0,1,.08.17v0a.14.14,0,0,1-.18.08Z" style="fill:#263238"></path><path d="M302.19,172.15a.22.22,0,0,0,.13.08.26.26,0,0,0,.29-.24h0a2.64,2.64,0,0,0-.93-2.25.26.26,0,0,0-.37.05h0a.27.27,0,0,0,.06.37h0a2.19,2.19,0,0,1,.7,1.8A.28.28,0,0,0,302.19,172.15Z" style="fill:#263238"></path><path d="M285.14,167.4c1.1-4.94,2.87-8.55,4.64-9.37s6.15,5.24,6.15,5.24a2,2,0,0,0-3.28,1.16c-.23,2.2-2.74,4.52-4.74,4.94,0,0,.37-.82-.4-1s-2.71,4.1-2.41,6.76C285.1,175.15,284,172.34,285.14,167.4Z" style="fill:#263238"></path><path d="M284,167.23a5.31,5.31,0,0,0,1.31,3.84c1.23,1.39,2.86.53,3.36-1.17.43-1.51.34-4.09-1.32-4.84A2.37,2.37,0,0,0,284,167.23Z" style="fill:#e4897b"></path><path d="M288.24,160.41s3.45-4,10.18-3.46c8.23.69,7.13,12.1,5.73,12.59-1.09.18-.24-4.83-1.41-4.36-.9.67-.9,1.2-1.84,1.11-.53,0-1.16-1.18-1.79-2.43-1.23-1.28-4.05,2.82-6.14,3.67C291.07,167,289.48,163,288.24,160.41Z" style="fill:#263238"></path><path d="M248.87,228.54c-.58,9.46.63,21.45,3.6,28.57l25.14-1.58,8.83-2.56c-1.66-1.71-5.45-10.72-2.87-24.84Z" style="fill:#FFFFFF"></path><g style="opacity:0.30000000000000004"><path d="M248.87,228.54c-.58,9.46.63,21.45,3.6,28.57l25.14-1.58,8.83-2.56c-1.86-2-5.3-10.71-2.87-24.84Z" style="fill:#fff"></path></g><polygon points="277.61 255.53 279 250.72 283.91 253.71 277.61 255.53" style="opacity:0.2"></polygon><path d="M286.71,170.61l-.32,2.34a4.22,4.22,0,0,0,.26,2.14l.15.37a4.21,4.21,0,0,0,3.27,2.6l1.51.23V179l-2-.38a4.23,4.23,0,0,1-3.1-2.53l-.35-.85a4.23,4.23,0,0,1-.24-2.41l.45-2.34Z" style="fill:#263238"></path><path d="M286.71,170.61l-.32,2.34a4.22,4.22,0,0,0,.26,2.14l.15.37a4.21,4.21,0,0,0,3.27,2.6l1.51.23V179l-2-.38a4.23,4.23,0,0,1-3.1-2.53l-.35-.85a4.23,4.23,0,0,1-.24-2.41l.45-2.34Z" style="fill:#fff;opacity:0.2"></path><rect x="291.08" y="177.87" width="2.23" height="1.88" rx="0.58" style="fill:#263238"></rect><rect x="285.56" y="167.48" width="2.05" height="3.45" rx="0.63" style="fill:#263238"></rect><path d="M297.11,191.64s4.55,22.27,7.66,26.74,19.71,20.15,19.71,20.15l-2.83,3.54s-23.22-14.87-24.86-17S284,202,284,202Z" style="fill:#fff;opacity:0.15"></path><polygon points="289.28 207.41 292.94 218.47 288.35 210.11 289.28 207.41" style="opacity:0.2"></polygon><path d="M248.69,231.49,283,233.67s4-31.33,15-41.37l-5.65-4.65-15-5.2s-7.66-.21-12.16.75a46.84,46.84,0,0,0-3.8,5.42,80.14,80.14,0,0,0-5.84,11.52A93.27,93.27,0,0,0,248.69,231.49Z" style="fill:#FFFFFF;isolation:isolate"></path><path d="M283.2,232.28l-11-7.8c-2-1.92-7.58-15.31-11.76-24.18l23.44,28.24Z" style="opacity:0.2"></path><path d="M271.93,182.5h1.26l22.3,7.74.93.76h0a3,3,0,0,1-1.54,1.65l-1.29.62C285.41,190.29,277.79,187.43,271.93,182.5Z" style="fill:#263238;opacity:0.2"></path><path d="M273.64,189.64s6.21,21.65,9.32,26.12,24.13,25.05,24.13,25.05l-3.36,3.79s-27.91-18.71-29.55-20.86-13.58-22.81-13.58-22.81C257.4,192.12,269,178.38,273.64,189.64Z" style="fill:#FFFFFF"></path><path d="M273.64,189.64s6.21,21.65,9.32,26.12,24.13,25.05,24.13,25.05l-3.36,3.79s-27.91-18.71-29.55-20.86-13.58-22.81-13.58-22.81C257.4,192.12,269,178.38,273.64,189.64Z" style="fill:#fff;opacity:0.15"></path><path d="M263.57,198.93l2.28,4.68c1-3.76,2.8-6,5.48-6.62l-2.66-5.35A11.79,11.79,0,0,0,263.57,198.93Z" style="fill:#FFFFFF"></path><g style="opacity:0.2"><path d="M246.06,283.75l-.92,14.45-12.45-4.07a1.32,1.32,0,0,0-1.7,1l-1.1,4.8a2,2,0,0,1-1.9,1.51h-1.16a1.37,1.37,0,0,1-1.37-1.3l-.92-19.91a.82.82,0,0,1,1-.84Z" style="fill:#fff"></path></g><path d="M300.56,231.88l-8.35,8.46,11.73,5.31,2.7,6.15a.78.78,0,0,0,1.26.24l5.83-5.74a.72.72,0,0,0-.05-1.08l-5.45-4.53Z" style="fill:#FFFFFF"></path><path d="M300.56,231.88l-8.35,8.46,11.73,5.31,2.7,6.15a.78.78,0,0,0,1.26.24l5.83-5.74a.72.72,0,0,0-.05-1.08l-5.45-4.53Z" style="fill:#fff;opacity:0.30000000000000004"></path><path d="M308.92,237.79l8.36-9.25,7.42,8.57,5.09,2.58a.59.59,0,0,1,.23.83l-.14.24-8.64,2.2-.62-.74Z" style="fill:#FFFFFF"></path><g style="opacity:0.30000000000000004"><path d="M308.92,237.79l8.36-9.25,7.42,8.57,5.09,2.58a.59.59,0,0,1,.23.83l-.14.24-8.64,2.2-.62-.74Z" style="fill:#fff"></path></g><path d="M309.39,169.54A17.8,17.8,0,1,0,275.44,177l-.72-.58c-1.72,1-2.62,2.69-2.56,5.24a63.75,63.75,0,0,0,21.7,10.58,7.36,7.36,0,0,0,2.56-5.24l-.75-.16A17.8,17.8,0,0,0,309.39,169.54Zm-15,14.81a12.93,12.93,0,1,1,12.93-12.93A12.92,12.92,0,0,1,294.43,184.35Z" style="fill:#FFFFFF"></path><path d="M309.39,169.54A17.8,17.8,0,1,0,275.44,177l-.72-.58c-1.72,1-2.62,2.69-2.56,5.24a63.75,63.75,0,0,0,21.7,10.58,7.36,7.36,0,0,0,2.56-5.24l-.75-.16A17.8,17.8,0,0,0,309.39,169.54Zm-15,14.81a12.93,12.93,0,1,1,12.93-12.93A12.92,12.92,0,0,1,294.43,184.35Z" style="fill:#fff;opacity:0.30000000000000004"></path><path d="M276.18,177.38l5.38,3.48c-4-2.9-6.29-7.14-6.73-12.91A16.72,16.72,0,0,0,276.18,177.38Z" style="opacity:0.2"></path><path d="M296,154.14a18.14,18.14,0,0,1,12,10.69,19.17,19.17,0,0,0-10.15-11.19Z" style="fill:#fff;opacity:0.2"></path><path d="M296.79,153.22l-1.77.7-1.54-.28.4-1.21A6.32,6.32,0,0,1,296.79,153.22Z" style="fill:#fff;opacity:0.2"></path><polygon points="245.95 285.38 245.19 296.51 245.82 296.68 246.67 285.45 245.95 285.38" style="fill:#263238;opacity:0.2"></polygon></g></svg>